<mxfile host="Electron" modified="2023-05-16T12:14:24.671Z" agent="Mozilla/5.0 (Windows NT 10.0; Win64; x64) AppleWebKit/537.36 (KHTML, like Gecko) draw.io/21.2.8 Chrome/112.0.5615.165 Electron/24.2.0 Safari/537.36" etag="S6eR9Ntaf1kzNC-DAgRr" version="21.2.8" type="device">
  <diagram name="第 1 页" id="Zut5R3kLNDCN4mEiI1k3">
    <mxGraphModel dx="1106" dy="737" grid="1" gridSize="10" guides="1" tooltips="1" connect="1" arrows="1" fold="1" page="1" pageScale="1" pageWidth="827" pageHeight="1169" math="0" shadow="0">
      <root>
        <mxCell id="0" />
        <mxCell id="1" parent="0" />
        <mxCell id="foZVvpTTf9jUfk8PNaJ0-3" value="" style="edgeStyle=orthogonalEdgeStyle;rounded=0;orthogonalLoop=1;jettySize=auto;html=1;" edge="1" parent="1" source="foZVvpTTf9jUfk8PNaJ0-1" target="foZVvpTTf9jUfk8PNaJ0-2">
          <mxGeometry relative="1" as="geometry" />
        </mxCell>
        <mxCell id="foZVvpTTf9jUfk8PNaJ0-1" value="开始" style="strokeWidth=2;html=1;shape=mxgraph.flowchart.terminator;whiteSpace=wrap;" vertex="1" parent="1">
          <mxGeometry x="80" y="320" width="80" height="40" as="geometry" />
        </mxCell>
        <mxCell id="foZVvpTTf9jUfk8PNaJ0-7" value="" style="edgeStyle=orthogonalEdgeStyle;rounded=0;orthogonalLoop=1;jettySize=auto;html=1;" edge="1" parent="1" source="foZVvpTTf9jUfk8PNaJ0-2" target="foZVvpTTf9jUfk8PNaJ0-6">
          <mxGeometry relative="1" as="geometry" />
        </mxCell>
        <mxCell id="foZVvpTTf9jUfk8PNaJ0-2" value="AnnotationInvocationHandler&amp;nbsp;&lt;br&gt;反序列化，触发 `readObject()`" style="whiteSpace=wrap;html=1;strokeWidth=2;" vertex="1" parent="1">
          <mxGeometry x="200" y="310" width="170" height="60" as="geometry" />
        </mxCell>
        <mxCell id="foZVvpTTf9jUfk8PNaJ0-10" value="" style="edgeStyle=orthogonalEdgeStyle;rounded=0;orthogonalLoop=1;jettySize=auto;html=1;" edge="1" parent="1" source="foZVvpTTf9jUfk8PNaJ0-4" target="foZVvpTTf9jUfk8PNaJ0-9">
          <mxGeometry relative="1" as="geometry" />
        </mxCell>
        <mxCell id="foZVvpTTf9jUfk8PNaJ0-4" value="其中调用了 `setValue()`，触发 transformedMap 中 ChainedTransformer 的 transform()" style="whiteSpace=wrap;html=1;strokeWidth=2;" vertex="1" parent="1">
          <mxGeometry x="570" y="300" width="156.5" height="80" as="geometry" />
        </mxCell>
        <mxCell id="foZVvpTTf9jUfk8PNaJ0-8" style="edgeStyle=orthogonalEdgeStyle;rounded=0;orthogonalLoop=1;jettySize=auto;html=1;entryX=0;entryY=0.5;entryDx=0;entryDy=0;" edge="1" parent="1" source="foZVvpTTf9jUfk8PNaJ0-6" target="foZVvpTTf9jUfk8PNaJ0-4">
          <mxGeometry relative="1" as="geometry" />
        </mxCell>
        <mxCell id="foZVvpTTf9jUfk8PNaJ0-6" value="transformedMap 的第一个参数 Map 的 key，与 AIH 内注解的 key 有相同的地方，从而进入 if" style="whiteSpace=wrap;html=1;strokeWidth=2;" vertex="1" parent="1">
          <mxGeometry x="413.5" y="300" width="120" height="80" as="geometry" />
        </mxCell>
        <mxCell id="foZVvpTTf9jUfk8PNaJ0-9" value="然后 ConstantTransformer 和 InvokerTransformer 的 transform() 被调用。" style="whiteSpace=wrap;html=1;strokeWidth=2;" vertex="1" parent="1">
          <mxGeometry x="770" y="300" width="156.5" height="80" as="geometry" />
        </mxCell>
      </root>
    </mxGraphModel>
  </diagram>
</mxfile>
